<mxfile host="app.diagrams.net" modified="2022-11-09T09:38:11.620Z" agent="5.0 (Windows NT 10.0; Win64; x64) AppleWebKit/537.36 (KHTML, like Gecko) Chrome/107.0.0.0 Safari/537.36" etag="d1LNaGXKWIJIPeumDZ0l" version="20.5.3" type="github">
  <diagram id="Vq2Zx_hkPp8rz8p0EHDN" name="Page-1">
    <mxGraphModel dx="2607" dy="1370" grid="1" gridSize="10" guides="1" tooltips="1" connect="1" arrows="1" fold="1" page="1" pageScale="1" pageWidth="850" pageHeight="1100" math="0" shadow="0">
      <root>
        <mxCell id="0" />
        <mxCell id="1" parent="0" />
        <mxCell id="1fGYtiLvZHlso3V2JrCZ-7" style="edgeStyle=orthogonalEdgeStyle;rounded=0;orthogonalLoop=1;jettySize=auto;html=1;exitX=1;exitY=0.25;exitDx=0;exitDy=0;" edge="1" parent="1" source="1fGYtiLvZHlso3V2JrCZ-1" target="1fGYtiLvZHlso3V2JrCZ-6">
          <mxGeometry relative="1" as="geometry" />
        </mxCell>
        <mxCell id="1fGYtiLvZHlso3V2JrCZ-1" value="" style="rounded=0;whiteSpace=wrap;html=1;" vertex="1" parent="1">
          <mxGeometry x="340" y="190" width="120" height="60" as="geometry" />
        </mxCell>
        <mxCell id="1fGYtiLvZHlso3V2JrCZ-5" style="edgeStyle=orthogonalEdgeStyle;rounded=0;orthogonalLoop=1;jettySize=auto;html=1;exitX=0.5;exitY=1;exitDx=0;exitDy=0;" edge="1" parent="1" source="1fGYtiLvZHlso3V2JrCZ-2" target="1fGYtiLvZHlso3V2JrCZ-4">
          <mxGeometry relative="1" as="geometry" />
        </mxCell>
        <mxCell id="1fGYtiLvZHlso3V2JrCZ-2" value="" style="ellipse;whiteSpace=wrap;html=1;aspect=fixed;" vertex="1" parent="1">
          <mxGeometry x="390" y="210" width="50" height="50" as="geometry" />
        </mxCell>
        <mxCell id="1fGYtiLvZHlso3V2JrCZ-10" style="edgeStyle=orthogonalEdgeStyle;rounded=0;orthogonalLoop=1;jettySize=auto;html=1;exitX=0.5;exitY=0;exitDx=0;exitDy=0;" edge="1" parent="1" source="1fGYtiLvZHlso3V2JrCZ-3" target="1fGYtiLvZHlso3V2JrCZ-9">
          <mxGeometry relative="1" as="geometry" />
        </mxCell>
        <mxCell id="1fGYtiLvZHlso3V2JrCZ-3" value="" style="whiteSpace=wrap;html=1;" vertex="1" parent="1">
          <mxGeometry x="390" y="280" width="120" height="60" as="geometry" />
        </mxCell>
        <mxCell id="1fGYtiLvZHlso3V2JrCZ-4" value="" style="ellipse;whiteSpace=wrap;html=1;aspect=fixed;" vertex="1" parent="1">
          <mxGeometry x="305" y="265" width="50" height="50" as="geometry" />
        </mxCell>
        <mxCell id="1fGYtiLvZHlso3V2JrCZ-6" value="" style="rounded=0;whiteSpace=wrap;html=1;" vertex="1" parent="1">
          <mxGeometry x="480" y="190" width="120" height="60" as="geometry" />
        </mxCell>
        <mxCell id="1fGYtiLvZHlso3V2JrCZ-8" value="" style="whiteSpace=wrap;html=1;" vertex="1" parent="1">
          <mxGeometry x="580" y="250" width="120" height="60" as="geometry" />
        </mxCell>
        <mxCell id="1fGYtiLvZHlso3V2JrCZ-9" value="" style="whiteSpace=wrap;html=1;" vertex="1" parent="1">
          <mxGeometry x="520" y="310" width="120" height="60" as="geometry" />
        </mxCell>
        <mxCell id="1fGYtiLvZHlso3V2JrCZ-11" value="" style="html=1;whiteSpace=wrap;shape=isoCube2;backgroundOutline=1;isoAngle=15;" vertex="1" parent="1">
          <mxGeometry x="730" y="190" width="90" height="100" as="geometry" />
        </mxCell>
        <mxCell id="1fGYtiLvZHlso3V2JrCZ-12" value="" style="html=1;whiteSpace=wrap;shape=isoCube2;backgroundOutline=1;isoAngle=15;" vertex="1" parent="1">
          <mxGeometry x="720" y="210" width="90" height="100" as="geometry" />
        </mxCell>
      </root>
    </mxGraphModel>
  </diagram>
</mxfile>
